<svg width="14" height="10" viewBox="0 0 14 10" fill="none" xmlns="http://www.w3.org/2000/svg">
<path fill-rule="evenodd" clip-rule="evenodd" d="M14 4.99967C14 4.72352 13.7762 4.49967 13.5 4.49967H1.70701L4.85401 1.35367C4.98048 1.22719 5.02987 1.04286 4.98358 0.870093C4.93729 0.697329 4.80235 0.562385 4.62958 0.516093C4.45682 0.469801 4.27248 0.519194 4.14601 0.645666L0.146009 4.64567C0.0519671 4.73947 -0.00088501 4.86684 -0.00088501 4.99967C-0.00088501 5.13249 0.0519671 5.25986 0.146009 5.35367L4.14601 9.35367C4.27248 9.48014 4.45682 9.52953 4.62958 9.48324C4.80235 9.43695 4.93729 9.302 4.98358 9.12924C5.02987 8.95648 4.98048 8.77214 4.85401 8.64567L1.70701 5.49967H13.5C13.7762 5.49967 14 5.27581 14 4.99967Z" fill="white"/>
</svg>
